# This file uses centimeters as units for non-parametric coordinates.

v -0.626482 0.053061 0.246770
v -0.603246 0.149842 0.246770
v -0.565158 0.241798 0.246770
v -0.513152 0.326663 0.246770
v -0.448512 0.402347 0.246770
v -0.372827 0.466988 0.246770
v -0.287962 0.518993 0.246770
v -0.196007 0.557082 0.246770
v -0.099225 0.580318 0.246770
v -0.000000 0.588127 0.246770
v 0.099225 0.580318 0.246770
v 0.196007 0.557082 0.246770
v 0.287962 0.518994 0.246770
v 0.372827 0.466988 0.246770
v 0.448511 0.402347 0.246770
v 0.513152 0.326663 0.246770
v 0.565158 0.241798 0.246770
v 0.603246 0.149843 0.246770
v 0.626482 0.053061 0.246770
v 0.636249 -0.046164 0.246770
v -0.636249 -0.046164 0.246770
v -0.616763 0.101907 0.246770
v -0.586006 0.196567 0.246770
v -0.540820 0.285250 0.246770
v -0.482316 0.365773 0.246770
v -0.411937 0.436152 0.246770
v -0.331415 0.494655 0.246770
v -0.242732 0.539842 0.246770
v -0.148072 0.570599 0.246770
v -0.049766 0.586169 0.246770
v 0.049766 0.586169 0.246770
v 0.148072 0.570599 0.246770
v 0.242732 0.539842 0.246770
v 0.331414 0.494655 0.246770
v 0.411937 0.436152 0.246770
v 0.482316 0.365773 0.246770
v 0.540820 0.285251 0.246770
v 0.586006 0.196567 0.246770
v 0.616763 0.101907 0.246770
v 0.632332 0.003602 0.246770
v -0.632332 0.003601 0.246770
v -2.293103 0.504276 -0.378911
v -2.340673 0.324176 -0.386586
v -2.232439 0.678843 -0.371699
v -2.158541 0.847834 -0.364612
v -2.072801 1.009613 -0.358085
v -1.974951 1.164009 -0.351702
v -1.866688 1.309716 -0.345956
v -1.747683 1.446413 -0.340371
v -1.619771 1.573254 -0.335479
v -1.482651 1.689708 -0.330759
v -1.338194 1.795370 -0.326775
v -1.186224 1.889498 -0.322972
v -1.028538 1.972107 -0.319932
v -0.865107 2.042311 -0.317078
v -0.697595 2.100472 -0.315008
v -0.526214 2.145590 -0.313127
v -0.352377 2.178332 -0.312039
v -0.176597 2.197649 -0.311143
v -0.000000 2.204423 -0.311048
v 0.176597 2.197649 -0.311144
v 0.352378 2.178331 -0.312039
v 0.526216 2.145590 -0.313127
v 0.697594 2.100471 -0.315007
v 0.865103 2.042313 -0.317079
v 1.028535 1.972109 -0.319932
v 1.186225 1.889498 -0.322972
v 1.338197 1.795368 -0.326776
v 1.482653 1.689705 -0.330760
v 1.619766 1.573257 -0.335479
v 1.747677 1.446419 -0.340370
v 1.866689 1.309715 -0.345956
v 1.974953 1.164006 -0.351702
v 2.072798 1.009619 -0.358085
v 2.158540 0.847837 -0.364612
v 2.232441 0.678838 -0.371700
v 2.293103 0.504279 -0.378912
v 2.340673 0.324181 -0.386587
v 2.373006 0.174924 -0.394974
v 2.383480 0.091352 -0.397133
v -2.373006 0.174920 -0.394973
v -2.383480 0.091347 -0.397133
v 0.636249 -0.179497 0.246770
v 0.636249 -0.312831 0.246770
v 0.636249 -0.446164 0.246770
v 0.636249 -0.579497 0.246770
v 0.636249 -0.712831 0.246770
v 0.636249 -0.846164 0.246770
v 0.636249 -0.979497 0.246770
v 0.636249 -1.112831 0.246770
v 0.636249 -1.246164 0.246770
v 0.636249 -1.379497 0.246770
v 0.636249 -1.512831 0.246770
v 0.636249 -1.646164 0.246770
v 0.636249 -1.779497 0.246770
v 0.636249 -1.912831 0.246770
v 0.636249 -2.046164 0.246770
v 2.383480 -0.041981 -0.397133
v 2.383480 -0.175315 -0.397133
v 2.383480 -0.308648 -0.397133
v 2.383480 -0.441981 -0.397133
v 2.383480 -0.575315 -0.397133
v 2.383480 -0.708648 -0.397133
v 2.383480 -0.841981 -0.397133
v 2.383480 -0.975315 -0.397133
v 2.383480 -1.108648 -0.397133
v 2.383480 -1.241981 -0.397133
v 2.383480 -1.375314 -0.397133
v 2.383480 -1.508648 -0.397133
v 2.383480 -1.641981 -0.397133
v 2.383480 -1.775315 -0.397133
v 2.383480 -1.908648 -0.397133
v -0.636249 -0.179497 0.246770
v -0.636249 -0.312831 0.246770
v -0.636249 -0.446164 0.246770
v -0.636249 -0.579497 0.246770
v -0.636249 -0.712831 0.246770
v -0.636249 -0.846164 0.246770
v -0.636249 -0.979497 0.246770
v -0.636249 -1.112831 0.246770
v -0.636249 -1.246164 0.246770
v -0.636249 -1.379497 0.246770
v -0.636249 -1.512831 0.246770
v -0.636249 -1.646164 0.246770
v -0.636249 -1.779497 0.246770
v -0.636249 -1.912831 0.246770
v -0.636249 -2.046164 0.246770
v -2.383480 -0.041987 -0.397133
v -2.383480 -0.175320 -0.397133
v -2.383480 -0.308653 -0.397133
v -2.383480 -0.441987 -0.397133
v -2.383480 -0.575320 -0.397133
v -2.383480 -0.708653 -0.397133
v -2.383480 -0.841987 -0.397133
v -2.383480 -0.975320 -0.397133
v -2.383480 -1.108653 -0.397133
v -2.383480 -1.241987 -0.397133
v -2.383480 -1.375320 -0.397133
v -2.383480 -1.508653 -0.397133
v -2.383480 -1.641987 -0.397133
v -2.383480 -1.775320 -0.397133
v -2.383480 -1.908653 -0.397133
vt 0.000000 0.000000
vt 1.000000 0.000000
vt 1.000000 1.000000
vt 0.000000 1.000000
vt 0.000000 0.000000
vt 1.000000 0.000000
vt 1.000000 1.000000
vt 0.000000 1.000000
vt 0.000000 0.000000
vt 1.000000 0.000000
vt 1.000000 1.000000
vt 0.000000 1.000000
vt 0.000000 0.000000
vt 1.000000 0.000000
vt 1.000000 1.000000
vt 0.000000 1.000000
vt 0.000000 0.000000
vt 1.000000 0.000000
vt 1.000000 1.000000
vt 0.000000 1.000000
vt 0.000000 0.000000
vt 1.000000 0.000000
vt 1.000000 1.000000
vt 0.000000 1.000000
vt 0.000000 0.000000
vt 1.000000 0.000000
vt 1.000000 1.000000
vt 0.000000 1.000000
vt 0.000000 0.000000
vt 1.000000 0.000000
vt 1.000000 1.000000
vt 0.000000 1.000000
vt 0.000000 0.000000
vt 1.000000 0.000000
vt 1.000000 1.000000
vt 0.000000 1.000000
vt 0.000000 0.000000
vt 1.000000 0.000000
vt 1.000000 1.000000
vt 0.000000 1.000000
vt 0.000000 0.000000
vt 1.000000 0.000000
vt 1.000000 1.000000
vt 0.000000 1.000000
vt 0.000000 0.000000
vt 1.000000 0.000000
vt 1.000000 1.000000
vt 0.000000 1.000000
vt 0.000000 0.000000
vt 1.000000 0.000000
vt 1.000000 1.000000
vt 0.000000 1.000000
vt 0.000000 0.000000
vt 1.000000 0.000000
vt 1.000000 1.000000
vt 0.000000 1.000000
vt 0.000000 0.000000
vt 1.000000 0.000000
vt 1.000000 1.000000
vt 0.000000 1.000000
vt 0.000000 0.000000
vt 1.000000 0.000000
vt 1.000000 1.000000
vt 0.000000 1.000000
vt 0.000000 0.000000
vt 1.000000 0.000000
vt 1.000000 1.000000
vt 0.000000 1.000000
vt 0.000000 0.000000
vt 1.000000 0.000000
vt 1.000000 1.000000
vt 0.000000 1.000000
vt 0.000000 0.000000
vt 1.000000 0.000000
vt 1.000000 1.000000
vt 0.000000 1.000000
vt 0.000000 0.000000
vt 1.000000 0.000000
vt 1.000000 1.000000
vt 0.000000 1.000000
vt 0.000000 0.000000
vt 1.000000 0.000000
vt 1.000000 1.000000
vt 0.000000 1.000000
vt 0.000000 0.000000
vt 1.000000 0.000000
vt 1.000000 1.000000
vt 0.000000 1.000000
vt 0.000000 0.000000
vt 1.000000 0.000000
vt 1.000000 1.000000
vt 0.000000 1.000000
vt 0.000000 0.000000
vt 1.000000 0.000000
vt 1.000000 1.000000
vt 0.000000 1.000000
vt 0.000000 0.000000
vt 1.000000 0.000000
vt 1.000000 1.000000
vt 0.000000 1.000000
vt 0.000000 0.000000
vt 1.000000 0.000000
vt 1.000000 1.000000
vt 0.000000 1.000000
vt 0.000000 0.000000
vt 1.000000 0.000000
vt 1.000000 1.000000
vt 0.000000 1.000000
vt 0.000000 0.000000
vt 1.000000 0.000000
vt 1.000000 1.000000
vt 0.000000 1.000000
vt 0.000000 0.000000
vt 1.000000 0.000000
vt 1.000000 1.000000
vt 0.000000 1.000000
vt 0.000000 0.000000
vt 1.000000 0.000000
vt 1.000000 1.000000
vt 0.000000 1.000000
vt 0.000000 0.000000
vt 1.000000 0.000000
vt 1.000000 1.000000
vt 0.000000 1.000000
vt 0.000000 0.000000
vt 1.000000 0.000000
vt 1.000000 1.000000
vt 0.000000 1.000000
vt 0.000000 0.000000
vt 1.000000 0.000000
vt 1.000000 1.000000
vt 0.000000 1.000000
vt 0.000000 0.000000
vt 1.000000 0.000000
vt 1.000000 1.000000
vt 0.000000 1.000000
vt 0.000000 0.000000
vt 1.000000 0.000000
vt 1.000000 1.000000
vt 0.000000 1.000000
vt 0.000000 0.000000
vt 1.000000 0.000000
vt 1.000000 1.000000
vt 0.000000 1.000000
vt 0.000000 0.000000
vt 1.000000 0.000000
vt 1.000000 1.000000
vt 0.000000 1.000000
vt 0.000000 0.000000
vt 1.000000 0.000000
vt 1.000000 1.000000
vt 0.000000 1.000000
vt 0.000000 0.000000
vt 1.000000 0.000000
vt 1.000000 1.000000
vt 0.000000 1.000000
vt 0.000000 0.000000
vt 1.000000 0.000000
vt 1.000000 1.000000
vt 0.000000 1.000000
vt 0.000000 0.000000
vt 1.000000 0.000000
vt 1.000000 1.000000
vt 0.000000 1.000000
vt 0.000000 0.000000
vt 1.000000 0.000000
vt 1.000000 1.000000
vt 0.000000 1.000000
vt 0.000000 0.000000
vt 1.000000 0.000000
vt 1.000000 1.000000
vt 0.000000 1.000000
vt 0.000000 0.000000
vt 1.000000 0.000000
vt 1.000000 1.000000
vt 0.000000 1.000000
vt 0.000000 0.000000
vt 1.000000 0.000000
vt 1.000000 1.000000
vt 0.000000 1.000000
vt 0.000000 0.000000
vt 1.000000 0.000000
vt 1.000000 1.000000
vt 0.000000 1.000000
vt 0.000000 0.000000
vt 1.000000 0.000000
vt 1.000000 1.000000
vt 0.000000 1.000000
vt 0.000000 0.000000
vt 1.000000 0.000000
vt 1.000000 1.000000
vt 0.000000 1.000000
vt 0.000000 0.000000
vt 1.000000 0.000000
vt 1.000000 1.000000
vt 0.000000 1.000000
vt 0.000000 0.000000
vt 1.000000 0.000000
vt 1.000000 1.000000
vt 0.000000 1.000000
vt 0.000000 0.000000
vt 1.000000 0.000000
vt 1.000000 1.000000
vt 0.000000 1.000000
vt 0.000000 0.000000
vt 1.000000 0.000000
vt 1.000000 1.000000
vt 0.000000 1.000000
vt 0.000000 0.000000
vt 1.000000 0.000000
vt 1.000000 1.000000
vt 0.000000 1.000000
vt 0.000000 0.000000
vt 1.000000 0.000000
vt 1.000000 1.000000
vt 0.000000 1.000000
vt 0.000000 0.000000
vt 1.000000 0.000000
vt 1.000000 1.000000
vt 0.000000 1.000000
vt 0.000000 0.000000
vt 1.000000 0.000000
vt 1.000000 1.000000
vt 0.000000 1.000000
vt 0.000000 0.000000
vt 1.000000 0.000000
vt 1.000000 1.000000
vt 0.000000 1.000000
vt 0.000000 0.000000
vt 1.000000 0.000000
vt 1.000000 1.000000
vt 0.000000 1.000000
vt 0.000000 0.000000
vt 1.000000 0.000000
vt 1.000000 1.000000
vt 0.000000 1.000000
vt 0.000000 0.000000
vt 1.000000 0.000000
vt 1.000000 1.000000
vt 0.000000 1.000000
vt 0.000000 0.000000
vt 1.000000 0.000000
vt 1.000000 1.000000
vt 0.000000 1.000000
vt 0.000000 0.000000
vt 1.000000 0.000000
vt 1.000000 1.000000
vt 0.000000 1.000000
vt 0.000000 0.000000
vt 1.000000 0.000000
vt 1.000000 1.000000
vt 0.000000 1.000000
vt 0.000000 0.000000
vt 1.000000 0.000000
vt 1.000000 1.000000
vt 0.000000 1.000000
vt 0.000000 0.000000
vt 1.000000 0.000000
vt 1.000000 1.000000
vt 0.000000 1.000000
vt 0.000000 0.000000
vt 1.000000 0.000000
vt 1.000000 1.000000
vt 0.000000 1.000000
vt 0.000000 0.000000
vt 1.000000 0.000000
vt 1.000000 1.000000
vt 0.000000 1.000000
vt 0.000000 0.000000
vt 1.000000 0.000000
vt 1.000000 1.000000
vt 0.000000 1.000000
vt 0.000000 0.000000
vt 1.000000 0.000000
vt 1.000000 1.000000
vt 0.000000 1.000000
vt 0.000000 0.000000
vt 1.000000 0.000000
vt 1.000000 1.000000
vt 0.000000 1.000000
vn 0.340595 -0.040723 -0.939328
vn 0.340736 -0.039939 -0.939310
vn 0.335034 -0.065873 -0.939900
vn 0.334873 -0.066492 -0.939914
vn 0.327153 -0.092051 -0.940477
vn 0.326955 -0.092623 -0.940490
vn 0.317278 -0.117403 -0.941037
vn 0.317039 -0.117950 -0.941049
vn 0.305486 -0.141928 -0.941560
vn 0.305225 -0.142418 -0.941571
vn 0.291865 -0.165326 -0.942063
vn 0.291574 -0.165782 -0.942073
vn 0.276491 -0.187623 -0.942523
vn 0.276194 -0.188018 -0.942532
vn 0.259496 -0.208530 -0.942962
vn 0.259182 -0.208887 -0.942969
vn 0.240952 -0.228088 -0.943355
vn 0.240648 -0.228384 -0.943361
vn 0.221018 -0.246043 -0.943723
vn 0.220710 -0.246299 -0.943729
vn 0.199772 -0.262436 -0.944044
vn 0.199489 -0.262637 -0.944048
vn 0.177396 -0.277045 -0.944339
vn 0.177124 -0.277208 -0.944343
vn 0.153972 -0.289918 -0.944585
vn 0.153734 -0.290036 -0.944587
vn 0.129687 -0.300874 -0.944805
vn 0.129474 -0.300960 -0.944807
vn 0.104637 -0.309961 -0.944974
vn 0.104467 -0.310015 -0.944975
vn 0.079011 -0.317036 -0.945117
vn 0.078875 -0.317068 -0.945117
vn 0.052920 -0.322151 -0.945208
vn 0.052831 -0.322165 -0.945208
vn 0.026537 -0.325199 -0.945273
vn 0.026491 -0.325203 -0.945273
vn -0.000001 -0.326243 -0.945286
vn -0.000001 -0.326243 -0.945286
vn -0.026538 -0.325199 -0.945273
vn -0.026491 -0.325203 -0.945273
vn -0.052919 -0.322151 -0.945208
vn -0.052830 -0.322165 -0.945208
vn -0.079011 -0.317035 -0.945117
vn -0.078875 -0.317067 -0.945117
vn -0.104638 -0.309961 -0.944974
vn -0.104467 -0.310015 -0.944975
vn -0.129687 -0.300874 -0.944805
vn -0.129474 -0.300960 -0.944807
vn -0.153972 -0.289918 -0.944585
vn -0.153734 -0.290036 -0.944587
vn -0.177396 -0.277044 -0.944339
vn -0.177124 -0.277208 -0.944343
vn -0.199773 -0.262435 -0.944044
vn -0.199489 -0.262636 -0.944048
vn -0.221017 -0.246044 -0.943723
vn -0.220710 -0.246299 -0.943729
vn -0.240951 -0.228090 -0.943355
vn -0.240646 -0.228386 -0.943361
vn -0.259495 -0.208531 -0.942962
vn -0.259181 -0.208887 -0.942969
vn -0.276491 -0.187623 -0.942523
vn -0.276194 -0.188018 -0.942532
vn -0.291864 -0.165326 -0.942063
vn -0.291574 -0.165782 -0.942073
vn -0.305486 -0.141927 -0.941560
vn -0.305225 -0.142417 -0.941571
vn -0.317278 -0.117404 -0.941037
vn -0.317039 -0.117951 -0.941049
vn -0.327154 -0.092050 -0.940477
vn -0.326955 -0.092622 -0.940490
vn -0.335035 -0.065873 -0.939900
vn -0.334873 -0.066491 -0.939914
vn -0.340736 -0.039939 -0.939310
vn -0.340595 -0.040724 -0.939328
vn -0.343543 -0.024445 -0.938819
vn -0.343520 -0.024557 -0.938824
vn -0.345226 -0.007416 -0.938490
vn -0.345249 -0.007124 -0.938484
vn 0.345249 -0.007124 -0.938484
vn 0.345226 -0.007416 -0.938490
vn 0.343543 -0.024445 -0.938819
vn 0.343520 -0.024557 -0.938824
vn -0.345794 0.000000 -0.938311
vn -0.345794 0.000000 -0.938311
vn -0.345794 0.000000 -0.938311
vn -0.345794 0.000000 -0.938311
vn -0.345794 0.000000 -0.938311
vn -0.345794 0.000000 -0.938311
vn -0.345794 0.000000 -0.938311
vn -0.345794 0.000000 -0.938311
vn -0.345794 0.000000 -0.938311
vn -0.345794 0.000000 -0.938311
vn -0.345794 0.000000 -0.938311
vn -0.345794 0.000000 -0.938311
vn -0.345794 0.000000 -0.938311
vn -0.345794 0.000000 -0.938311
vn -0.345794 0.000000 -0.938311
vn -0.345794 0.000000 -0.938311
vn -0.345794 0.000000 -0.938311
vn -0.345794 0.000000 -0.938311
vn -0.345794 0.000000 -0.938311
vn -0.345794 0.000000 -0.938311
vn -0.345794 0.000000 -0.938311
vn -0.345794 0.000000 -0.938311
vn -0.345794 0.000000 -0.938311
vn -0.345794 0.000000 -0.938311
vn -0.345794 0.000000 -0.938311
vn -0.345794 0.000000 -0.938311
vn -0.345794 0.000000 -0.938311
vn -0.345794 0.000000 -0.938311
vn -0.345793 0.000000 -0.938311
vn -0.345793 0.000000 -0.938311
vn 0.345793 0.000000 -0.938311
vn 0.345793 0.000000 -0.938311
vn 0.345793 0.000000 -0.938311
vn 0.345793 0.000000 -0.938311
vn 0.345793 0.000000 -0.938311
vn 0.345793 0.000000 -0.938311
vn 0.345793 0.000000 -0.938311
vn 0.345793 0.000000 -0.938311
vn 0.345793 0.000000 -0.938311
vn 0.345793 0.000000 -0.938311
vn 0.345793 0.000000 -0.938311
vn 0.345793 0.000000 -0.938311
vn 0.345793 0.000000 -0.938311
vn 0.345793 0.000000 -0.938311
vn 0.345793 0.000000 -0.938311
vn 0.345793 0.000000 -0.938311
vn 0.345793 0.000000 -0.938311
vn 0.345793 0.000000 -0.938311
vn 0.345793 0.000000 -0.938311
vn 0.345793 0.000000 -0.938311
vn 0.345793 0.000000 -0.938311
vn 0.345793 0.000000 -0.938311
vn 0.345793 0.000000 -0.938311
vn 0.345793 0.000000 -0.938311
vn 0.345793 0.000000 -0.938311
vn 0.345793 0.000000 -0.938311
vn 0.345793 0.000000 -0.938311
vn 0.345793 0.000000 -0.938311
vn 0.345793 0.000000 -0.938311
vn 0.345793 0.000000 -0.938311
s 1
f 1/1/1 43/4/2 42/3/3 22/2/4
f 22/5/4 42/8/3 44/7/5 2/6/6
f 2/9/6 44/12/5 45/11/7 23/10/8
f 23/13/8 45/16/7 46/15/9 3/14/10
f 3/17/10 46/20/9 47/19/11 24/18/12
f 24/21/12 47/24/11 48/23/13 4/22/14
f 4/25/14 48/28/13 49/27/15 25/26/16
f 25/29/16 49/32/15 50/31/17 5/30/18
f 5/33/18 50/36/17 51/35/19 26/34/20
f 26/37/20 51/40/19 52/39/21 6/38/22
f 6/41/22 52/44/21 53/43/23 27/42/24
f 27/45/24 53/48/23 54/47/25 7/46/26
f 7/49/26 54/52/25 55/51/27 28/50/28
f 28/53/28 55/56/27 56/55/29 8/54/30
f 8/57/30 56/60/29 57/59/31 29/58/32
f 29/61/32 57/64/31 58/63/33 9/62/34
f 9/65/34 58/68/33 59/67/35 30/66/36
f 30/69/36 59/72/35 60/71/37 10/70/38
f 10/73/38 60/76/37 61/75/39 31/74/40
f 31/77/40 61/80/39 62/79/41 11/78/42
f 11/81/42 62/84/41 63/83/43 32/82/44
f 32/85/44 63/88/43 64/87/45 12/86/46
f 12/89/46 64/92/45 65/91/47 33/90/48
f 33/93/48 65/96/47 66/95/49 13/94/50
f 13/97/50 66/100/49 67/99/51 34/98/52
f 34/101/52 67/104/51 68/103/53 14/102/54
f 14/105/54 68/108/53 69/107/55 35/106/56
f 35/109/56 69/112/55 70/111/57 15/110/58
f 15/113/58 70/116/57 71/115/59 36/114/60
f 36/117/60 71/120/59 72/119/61 16/118/62
f 16/121/62 72/124/61 73/123/63 37/122/64
f 37/125/64 73/128/63 74/127/65 17/126/66
f 17/129/66 74/132/65 75/131/67 38/130/68
f 38/133/68 75/136/67 76/135/69 18/134/70
f 18/137/70 76/140/69 77/139/71 39/138/72
f 39/141/72 77/144/71 78/143/73 19/142/74
f 19/145/74 78/148/73 79/147/75 40/146/76
f 40/149/76 79/152/75 80/151/77 20/150/78
f 21/153/79 82/156/80 81/155/81 41/154/82
f 41/157/82 81/160/81 43/159/2 1/158/1
f 20/161/78 80/162/77 98/163/83 83/164/84
f 83/165/84 98/166/83 99/167/85 84/168/86
f 84/169/86 99/170/85 100/171/87 85/172/88
f 85/173/88 100/174/87 101/175/89 86/176/90
f 86/177/90 101/178/89 102/179/91 87/180/92
f 87/181/92 102/182/91 103/183/93 88/184/94
f 88/185/94 103/186/93 104/187/95 89/188/96
f 89/189/96 104/190/95 105/191/97 90/192/98
f 90/193/98 105/194/97 106/195/99 91/196/100
f 91/197/100 106/198/99 107/199/101 92/200/102
f 92/201/102 107/202/101 108/203/103 93/204/104
f 93/205/104 108/206/103 109/207/105 94/208/106
f 94/209/106 109/210/105 110/211/107 95/212/108
f 95/213/108 110/214/107 111/215/109 96/216/110
f 96/217/110 111/218/109 112/219/111 97/220/112
f 82/221/80 21/222/79 113/223/113 128/224/114
f 128/225/114 113/226/113 114/227/115 129/228/116
f 129/229/116 114/230/115 115/231/117 130/232/118
f 130/233/118 115/234/117 116/235/119 131/236/120
f 131/237/120 116/238/119 117/239/121 132/240/122
f 132/241/122 117/242/121 118/243/123 133/244/124
f 133/245/124 118/246/123 119/247/125 134/248/126
f 134/249/126 119/250/125 120/251/127 135/252/128
f 135/253/128 120/254/127 121/255/129 136/256/130
f 136/257/130 121/258/129 122/259/131 137/260/132
f 137/261/132 122/262/131 123/263/133 138/264/134
f 138/265/134 123/266/133 124/267/135 139/268/136
f 139/269/136 124/270/135 125/271/137 140/272/138
f 140/273/138 125/274/137 126/275/139 141/276/140
f 141/277/140 126/278/139 127/279/141 142/280/142
