# This file uses centimeters as units for non-parametric coordinates.

mtllib cactus_ground_1.mtl
g default
v -3.635981 -0.000000 3.635981
v 3.635981 -0.000000 3.635981
v -3.635981 0.000000 -3.635981
v 3.635981 0.000000 -3.635981
vt 0.000000 0.000000
vt 1.000000 0.000000
vt 0.000000 1.000000
vt 1.000000 1.000000
vn 0.000000 1.000000 0.000000
vn 0.000000 1.000000 0.000000
vn 0.000000 1.000000 0.000000
vn 0.000000 1.000000 0.000000
s off
g pPlane1
usemtl pPlaneShape1_bakedmtlSG
f 1/1/1 2/2/2 4/4/3 3/3/4
