# This file uses centimeters as units for non-parametric coordinates.

v 0.000000 1.696480 0.392837
v 0.392837 1.696480 0.000000
v -0.392837 1.696480 0.000000
v 0.000000 1.696480 -0.392837
v 0.265165 1.696298 0.265165
v -0.265165 1.696298 -0.265165
v 0.000000 1.370000 0.530330
v 0.530330 1.370000 0.000000
v -0.265165 1.696298 0.265165
v 0.265165 1.696298 -0.265165
v -0.530330 1.370000 0.000000
v 0.000000 1.370000 -0.530330
v 0.353553 1.370000 0.353553
v 0.000000 1.870000 0.000000
v -0.353553 1.370000 -0.353553
v 0.353553 1.370000 -0.353553
v -0.353553 1.370000 0.353553
v 0.272800 0.000000 0.272800
v 0.530330 0.000000 0.000000
v 0.000000 0.000000 0.530330
v -0.272800 0.000000 -0.346226
v 0.000000 0.000000 -0.530330
v 0.213223 0.000000 0.000000
v 0.272800 0.000000 -0.272800
v -0.272800 0.000000 0.346226
v -0.700284 0.421492 0.000000
v -0.688147 0.000000 0.176777
v -0.688147 0.000000 -0.176777
v 0.213223 0.342500 0.000000
v 0.257418 0.000000 0.088388
v 0.257418 0.000000 -0.088388
vt 1.000000 0.000000
vt 1.000000 0.000000
vt 1.000000 0.000000
vt 1.000000 0.000000
vt 1.000000 0.000000
vt 1.000000 0.000000
vt 0.000000 0.000000
vt 0.000000 0.000000
vt 1.000000 1.000000
vt 0.000000 0.000000
vt 0.000000 0.000000
vt 1.000000 1.000000
vt 0.000000 0.000000
vt 0.000000 0.000000
vt 0.000000 0.000000
vt 1.000000 1.000000
vt 0.000000 0.000000
vt 1.000000 1.000000
vt 0.000000 0.000000
vt 0.000000 0.000000
vt 0.000000 0.000000
vt 0.000000 0.000000
vt 1.000000 1.000000
vt 0.000000 0.000000
vt 1.000000 1.000000
vt 1.000000 0.000000
vt 1.000000 1.000000
vt 1.000000 1.000000
vt 1.000000 0.000000
vt 1.000000 1.000000
vt 0.000000 0.000000
vt 1.000000 1.000000
vt 1.000000 0.000000
vt 1.000000 1.000000
vt 0.000000 0.000000
vt 1.000000 0.000000
vt 1.000000 1.000000
vt 1.000000 1.000000
vt 1.000000 1.000000
vt 0.000000 0.000000
vt 1.000000 1.000000
vt 1.000000 0.000000
vt 1.000000 1.000000
vt 1.000000 1.000000
vt 1.000000 0.000000
vt 1.000000 1.000000
vt 0.000000 0.000000
vt 0.000000 0.000000
vt 1.000000 1.000000
vt 1.000000 0.000000
vt 1.000000 1.000000
vt 1.000000 1.000000
vt 0.000000 1.000000
vt 1.000000 1.000000
vt 1.000000 1.000000
vt 0.000000 1.000000
vt 1.000000 1.000000
vt 1.000000 1.000000
vt 0.000000 1.000000
vt 1.000000 0.000000
vt 0.000000 0.000000
vt 1.000000 0.000000
vt 0.000000 0.000000
vt 0.000000 0.000000
vt 1.000000 0.000000
vt 1.000000 1.000000
vt 0.000000 0.000000
vt 1.000000 0.000000
vt 1.000000 1.000000
vt 1.000000 0.000000
vt 1.000000 1.000000
vt 0.000000 0.000000
vt 1.000000 0.000000
vt 1.000000 1.000000
vt 0.000000 0.000000
vt 1.000000 0.000000
vt 1.000000 1.000000
vt 0.000000 0.000000
vt 1.000000 0.000000
vt 1.000000 1.000000
vt 1.000000 0.000000
vt 1.000000 1.000000
vt 1.000000 0.000000
vt 1.000000 1.000000
vt 0.000000 0.000000
vt 1.000000 0.000000
vt 1.000000 1.000000
vt 0.000000 0.000000
vt 1.000000 0.000000
vt 1.000000 1.000000
vt 1.000000 0.000000
vt 1.000000 1.000000
vt 1.000000 0.000000
vt 1.000000 1.000000
vt 0.000000 0.000000
vt 1.000000 0.000000
vt 1.000000 1.000000
vt 0.000000 0.000000
vt 0.000000 0.000000
vt 1.000000 0.000000
vt 1.000000 0.000000
vt 1.000000 1.000000
vt 0.000000 0.000000
vt 1.000000 1.000000
vt 1.000000 0.000000
vt 1.000000 1.000000
vt 1.000000 0.000000
vt 1.000000 1.000000
vt 0.000000 0.000000
vt 1.000000 1.000000
vt 1.000000 0.000000
vt 1.000000 1.000000
vt 0.000000 0.000000
vt 1.000000 0.000000
vt 0.000000 0.000000
vt 1.000000 0.000000
vt 0.000000 0.000000
vt 1.000000 0.000000
vt 0.000000 0.000000
vt 1.000000 0.000000
vt 0.000000 0.000000
vt 1.000000 0.000000
vt 0.000000 0.000000
vt 1.000000 0.000000
vt 0.000000 0.000000
vt 1.000000 0.000000
vt 0.000000 0.000000
vt 1.000000 0.000000
vt 0.000000 0.000000
vt 1.000000 0.000000
vt 0.000000 0.000000
vt 0.000000 1.000000
vt 0.000000 0.000000
vt 1.000000 0.000000
vt 0.000000 0.000000
vt 1.000000 0.000000
vn 0.528361 0.664581 0.528361
vn 0.764993 0.644039 0.000000
vn -0.000000 1.000000 0.000000
vn 0.528361 0.664582 -0.528361
vn 0.000000 0.644039 -0.764992
vn -0.528361 0.664582 -0.528361
vn -0.764993 0.644039 -0.000000
vn -0.528361 0.664582 0.528361
vn -0.000000 0.644039 0.764992
vn 0.999895 0.014474 0.000000
vn 0.707099 -0.004544 0.707099
vn -0.003299 0.035373 0.999369
vn -0.711386 0.026351 -0.702308
vn -0.003299 0.035373 -0.999369
vn 0.707099 -0.004544 -0.707099
vn -0.711386 0.026351 0.702308
vn 0.891643 -0.078836 0.445822
vn 0.445822 -0.078836 0.891644
vn 0.445822 -0.078836 -0.891644
vn 0.891643 -0.078836 -0.445822
vn 0.686463 0.000000 0.727165
vn 0.686463 0.000000 0.727165
vn 0.686463 0.000000 0.727165
vn 0.727165 0.000000 -0.686463
vn 0.727165 0.000000 -0.686463
vn 0.727165 0.000000 -0.686463
vn 0.727165 0.000000 0.686463
vn 0.727165 0.000000 0.686463
vn 0.727165 0.000000 0.686463
vn 0.686463 0.000000 -0.727165
vn 0.686463 0.000000 -0.727165
vn 0.686463 0.000000 -0.727165
vn -0.446997 -0.031129 -0.893994
vn -0.559398 0.000000 -0.828899
vn -0.559398 0.000000 -0.828899
vn -0.559398 0.000000 -0.828899
vn -0.999257 0.038548 0.000000
vn -0.893072 -0.055030 -0.446536
vn -0.446997 -0.031129 0.893994
vn -0.893072 -0.055030 0.446536
vn -0.559398 0.000000 0.828899
vn -0.559398 0.000000 0.828899
vn -0.559398 0.000000 0.828899
vn -0.515247 0.167801 0.840454
vn -0.515247 0.167801 0.840454
vn -0.515247 0.167801 0.840454
vn -0.515247 0.167801 0.840454
vn -0.515247 0.167801 -0.840454
vn -0.515247 0.167801 -0.840454
vn -0.515247 0.167801 -0.840454
vn -0.515247 0.167801 -0.840454
vn -0.058846 -0.331192 -0.941727
vn -0.058846 -0.331192 -0.941727
vn -0.058846 -0.331192 -0.941727
vn -0.058846 -0.331192 -0.941727
vn -0.058846 -0.331192 0.941727
vn -0.058846 -0.331192 0.941727
vn -0.058846 -0.331192 0.941727
vn -0.058846 -0.331192 0.941727
vn -0.894427 0.000000 -0.447214
vn -0.894427 0.000000 -0.447214
vn -0.894427 0.000000 -0.447214
vn -0.894427 0.000000 0.447214
vn -0.894427 0.000000 0.447214
vn -0.894427 0.000000 0.447214
s 1
f 5/64/1 2/65/2 14/66/3
f 14/67/3 2/68/2 10/69/4
f 10/15/4 4/70/5 14/71/3
f 14/72/3 4/73/5 6/74/6
f 6/75/6 3/76/7 14/77/3
f 14/78/3 3/79/7 9/80/8
f 9/17/8 1/81/9 14/82/3
f 14/8/3 1/83/9 5/84/1
f 8/85/10 2/86/2 13/87/11
f 13/88/11 2/89/2 5/90/1
f 5/13/1 1/91/9 13/92/11
f 13/7/11 1/93/9 7/94/12
f 6/95/6 4/96/5 15/97/13
f 15/98/13 4/4/5 12/18/14
f 15/99/13 3/100/7 6/16/6
f 12/20/14 4/101/5 16/102/15
f 16/103/15 4/5/5 10/104/4
f 10/21/4 2/105/2 16/106/15
f 16/10/15 2/2/2 8/12/10
f 7/14/12 1/107/9 17/108/16
f 17/109/16 1/1/9 9/110/8
f 9/22/8 3/111/7 17/112/16
f 18/113/17 8/114/10 13/25/11
f 7/115/12 18/116/18 13/28/11
f 24/117/19 12/118/14 16/41/15
f 8/119/10 24/120/20 16/44/15
s off
f 18/31/21 7/29/22 20/30/23
f 24/47/24 8/45/25 19/46/26
f 8/24/27 18/26/28 19/27/29
f 12/40/30 24/42/31 22/43/32
s 1
f 12/121/14 21/122/33 15/32/13
s off
f 21/35/34 12/33/35 22/34/36
s 1
f 11/19/37 3/3/7 15/9/13
f 17/11/16 3/6/7 11/23/37
f 21/123/38 11/124/37 15/37/13
f 25/125/39 7/126/12 17/49/16
f 11/127/37 25/128/40 17/52/16
s off
f 7/48/41 25/50/42 20/51/43
f 26/129/44 27/130/45 25/55/46 11/53/47
f 26/131/48 11/36/49 21/38/50 28/132/51
f 29/133/52 30/134/53 27/57/54 26/56/55
f 31/135/56 29/136/57 26/58/58 28/59/59
f 29/63/60 31/62/61 23/39/62
f 30/61/63 29/60/64 23/54/65
