# This file uses centimeters as units for non-parametric coordinates.

v -0.277778 0.277778 0.277778
v 0.277778 0.277778 0.277778
v -0.277778 0.277778 -0.277778
v 0.277778 0.277778 -0.277778
v 0.000000 0.375000 0.375000
v 0.000000 0.375000 -0.375000
v -0.375000 0.000000 0.375000
v 0.375000 0.000000 0.375000
v -0.375000 0.375000 0.000000
v 0.375000 0.375000 0.000000
v -0.375000 0.000000 -0.375000
v 0.375000 0.000000 -0.375000
v 0.000000 0.000000 0.500000
v 0.000000 0.500000 0.000000
v 0.000000 0.000000 -0.500000
v 0.500000 0.000000 0.000000
v -0.500000 0.000000 0.000000
vt 0.500000 0.125000
vt 0.625000 0.125000
vt 0.500000 0.250000
vt 0.625000 0.250000
vt 0.375000 0.125000
vt 0.375000 0.250000
vt 0.500000 0.375000
vt 0.625000 0.375000
vt 0.500000 0.500000
vt 0.625000 0.500000
vt 0.375000 0.375000
vt 0.375000 0.500000
vt 0.500000 0.625000
vt 0.625000 0.625000
vt 0.375000 0.625000
vt 0.750000 0.125000
vt 0.875000 0.125000
vt 0.750000 0.250000
vt 0.875000 0.250000
vt 0.250000 0.125000
vt 0.250000 0.250000
vt 0.125000 0.125000
vt 0.125000 0.250000
vn -0.707107 0.000000 -0.707107
vn 0.000000 0.000000 -1.000000
vn 0.000000 -0.707107 -0.707107
vn -0.577350 -0.577350 -0.577350
vn 0.000000 -0.707107 -0.707107
vn 0.000000 0.000000 -1.000000
vn 0.707107 0.000000 -0.707107
vn 0.577350 -0.577350 -0.577350
vn 0.000000 -0.707107 -0.707107
vn 0.000000 -1.000000 0.000000
vn -0.707107 -0.707107 0.000000
vn -0.577350 -0.577350 -0.577350
vn -0.707107 -0.707107 0.000000
vn 0.000000 -1.000000 0.000000
vn 0.000000 -0.707107 0.707107
vn -0.577350 -0.577350 0.577350
vn 0.000000 -0.707107 0.707107
vn 0.000000 -1.000000 0.000000
vn 0.707107 -0.707107 0.000000
vn 0.577350 -0.577350 0.577350
vn 0.707107 -0.707107 0.000000
vn 0.000000 -1.000000 0.000000
vn 0.000000 -0.707107 -0.707107
vn 0.577350 -0.577350 -0.577350
vn 0.000000 -0.707107 0.707107
vn 0.000000 0.000000 1.000000
vn -0.707107 0.000000 0.707107
vn -0.577350 -0.577350 0.577350
vn 0.707107 -0.000000 0.707107
vn 0.000000 0.000000 1.000000
vn 0.000000 -0.707107 0.707107
vn 0.577350 -0.577350 0.577350
vn -0.707107 0.000000 0.707107
vn -1.000000 0.000000 0.000000
vn -0.707107 -0.707107 0.000000
vn -0.577350 -0.577350 0.577350
vn -0.707107 -0.707107 0.000000
vn -1.000000 0.000000 0.000000
vn -0.707107 0.000000 -0.707107
vn -0.577350 -0.577350 -0.577350
vn 0.707107 0.000000 -0.707107
vn 1.000000 0.000000 0.000000
vn 0.707107 -0.707107 0.000000
vn 0.577350 -0.577350 -0.577350
vn 0.707107 -0.707107 0.000000
vn 1.000000 0.000000 0.000000
vn 0.707107 -0.000000 0.707107
vn 0.577350 -0.577350 0.577350
s off
f 8/2/1 13/1/2 5/3/3 2/4/4
f 5/3/5 13/1/6 7/5/7 1/6/8
f 5/3/9 14/7/10 10/8/11 2/4/12
f 10/8/13 14/7/14 6/9/15 4/10/16
f 6/9/17 14/7/18 9/11/19 3/12/20
f 9/11/21 14/7/22 5/3/23 1/6/24
f 6/9/25 15/13/26 12/14/27 4/10/28
f 11/15/29 15/13/30 6/9/31 3/12/32
f 12/17/33 16/16/34 10/18/35 4/19/36
f 10/18/37 16/16/38 8/2/39 2/4/40
f 7/5/41 17/20/42 9/21/43 1/6/44
f 9/21/45 17/20/46 11/22/47 3/23/48
