# This file uses centimeters as units for non-parametric coordinates.

mtllib platonic_OBJ.mtl
v 0.934172 23.235080 -0.000000
v 0.934172 23.948726 0.000000
v 0.356822 23.591903 -0.934172
v 0.577350 24.169254 -0.577350
v 0.577350 23.014553 -0.577350
v 0.356822 23.591903 0.934172
v 0.577350 23.014553 0.577350
v 0.577350 24.169254 0.577350
v -0.934172 23.235080 -0.000000
v -0.934172 23.948726 0.000000
v -0.356822 23.591903 0.934172
v -0.577350 23.014553 0.577350
v -0.577350 24.169254 0.577350
v -0.356822 23.591903 -0.934172
v -0.577350 24.169254 -0.577350
v -0.577350 23.014553 -0.577350
v 0.000000 22.657732 0.356822
v 0.000000 24.526075 0.356822
v 0.000000 24.526075 -0.356822
v 0.000000 22.657732 -0.356822
v 0.826298 23.591900 -0.510680
v 0.826298 23.591900 0.510680
v 0.510680 22.765602 0.000000
v -0.000000 23.081222 0.826298
v -0.510679 22.765605 0.000000
v -0.000000 23.081226 -0.826298
v -0.000000 24.102585 -0.826298
v 0.510679 24.418202 -0.000000
v -0.000000 24.102586 0.826298
v -0.826298 23.591900 0.510680
v -0.510679 24.418202 0.000000
v -0.826298 23.591900 -0.510680
vt 0.099106 0.250000
vt 0.221609 0.250000
vt 0.259464 0.368034
vt 0.160357 0.440983
vt 0.061251 0.368034
vt 0.037855 0.440983
vt 0.198213 0.559017
vt 0.099106 0.631966
vt 0.000000 0.559017
vt 0.320715 0.559017
vt 0.358570 0.677051
vt 0.259464 0.750000
vt 0.160357 0.677051
vt 0.358570 0.440983
vt 0.481072 0.440983
vt 0.518928 0.559017
vt 0.419821 0.631966
vt 0.297319 0.250000
vt 0.419821 0.250000
vt 0.457677 0.368034
vt 0.740536 0.250000
vt 0.839643 0.322949
vt 0.801787 0.440983
vt 0.679285 0.440983
vt 0.641430 0.322949
vt 0.580179 0.368034
vt 0.641430 0.559017
vt 0.740536 0.631966
vt 0.702681 0.750000
vt 0.580179 0.750000
vt 0.542323 0.631966
vt 0.839643 0.559017
vt 0.938749 0.631966
vt 0.900894 0.750000
vt 0.778391 0.750000
vt 0.900894 0.368034
vt 1.000000 0.440983
vt 0.962145 0.559017
vt 0.099106 0.526393
vt 0.259464 0.473607
vt 0.259464 0.644427
vt 0.419821 0.526393
vt 0.641430 0.664590
vt 0.839643 0.664590
vt 0.900894 0.473607
vt 0.160357 0.335410
vt 0.358570 0.335410
vt 0.580179 0.473607
vt 0.740536 0.355573
vt 0.740536 0.526393
vn 0.934172 -0.356822 -0.000000
vn 0.577349 -0.577351 -0.577352
vn 0.850651 -0.000001 -0.525731
vn 0.356822 0.000000 -0.934172
vn 0.577351 0.577350 -0.577350
vn 0.934172 0.356822 -0.000000
vn 0.577352 0.577349 0.577350
vn 0.356822 0.000000 0.934172
vn 0.850651 -0.000001 0.525731
vn 0.577350 -0.577350 0.577351
vn 0.525730 -0.850652 -0.000000
vn -0.000001 -0.934172 0.356823
vn -0.000001 -0.934172 -0.356824
vn -0.356822 0.000000 0.934173
vn 0.000000 -0.525731 0.850651
vn -0.577350 -0.577351 0.577350
vn -0.525730 -0.850652 0.000000
vn -0.934172 -0.356822 0.000000
vn -0.577349 -0.577351 -0.577351
vn 0.000000 -0.525731 -0.850651
vn -0.356822 0.000000 -0.934172
vn 0.000000 0.525731 -0.850651
vn -0.577351 0.577350 -0.577350
vn 0.000000 0.934173 -0.356822
vn 0.525730 0.850652 -0.000000
vn 0.000000 0.934173 0.356821
vn -0.000000 0.525732 0.850650
vn -0.577352 0.577349 0.577350
vn -0.850651 -0.000001 0.525731
vn -0.934172 0.356822 0.000000
vn -0.525730 0.850652 0.000000
vn -0.850651 -0.000001 -0.525731
s 1
usemtl initialShadingGroup
f 1/7/1 5/8/2 21/39/3
f 5/8/2 3/9/4 21/39/3
f 3/9/4 4/6/5 21/39/3
f 4/6/5 2/4/6 21/39/3
f 2/4/6 1/7/1 21/39/3
f 8/3/7 6/14/8 22/40/9
f 6/14/8 7/10/10 22/40/9
f 7/10/10 1/7/1 22/40/9
f 1/7/1 2/4/6 22/40/9
f 2/4/6 8/3/7 22/40/9
f 1/7/1 7/10/10 23/41/11
f 7/10/10 17/11/12 23/41/11
f 17/11/12 20/12/13 23/41/11
f 20/12/13 5/13/2 23/41/11
f 5/13/2 1/7/1 23/41/11
f 6/14/8 11/15/14 24/42/15
f 11/15/14 12/16/16 24/42/15
f 12/16/16 17/17/12 24/42/15
f 17/17/12 7/10/10 24/42/15
f 7/10/10 6/14/8 24/42/15
f 17/30/12 12/31/16 25/43/17
f 12/31/16 9/27/18 25/43/17
f 9/27/18 16/28/19 25/43/17
f 16/28/19 20/29/13 25/43/17
f 20/29/13 17/30/12 25/43/17
f 5/34/2 20/35/13 26/44/20
f 20/35/13 16/28/19 26/44/20
f 16/28/19 14/32/21 26/44/20
f 14/32/21 3/33/4 26/44/20
f 3/33/4 5/34/2 26/44/20
f 3/38/4 14/32/21 27/45/22
f 14/32/21 15/23/23 27/45/22
f 15/23/23 19/36/24 27/45/22
f 19/36/24 4/37/5 27/45/22
f 4/37/5 3/38/4 27/45/22
f 2/4/6 4/5/5 28/46/25
f 4/5/5 19/1/24 28/46/25
f 19/1/24 18/2/26 28/46/25
f 18/2/26 8/3/7 28/46/25
f 8/3/7 2/4/6 28/46/25
f 8/3/7 18/18/26 29/47/27
f 18/18/26 13/19/28 29/47/27
f 13/19/28 11/20/14 29/47/27
f 11/20/14 6/14/8 29/47/27
f 6/14/8 8/3/7 29/47/27
f 9/27/18 12/16/16 30/48/29
f 12/16/16 11/15/14 30/48/29
f 11/15/14 13/26/28 30/48/29
f 13/26/28 10/24/30 30/48/29
f 10/24/30 9/27/18 30/48/29
f 10/24/30 13/25/28 31/49/31
f 13/25/28 18/21/26 31/49/31
f 18/21/26 19/22/24 31/49/31
f 19/22/24 15/23/23 31/49/31
f 15/23/23 10/24/30 31/49/31
f 10/24/30 15/23/23 32/50/32
f 15/23/23 14/32/21 32/50/32
f 14/32/21 16/28/19 32/50/32
f 16/28/19 9/27/18 32/50/32
f 9/27/18 10/24/30 32/50/32
