# This file uses centimeters as units for non-parametric coordinates.

v -1.863790 0.000000 1.129595
v 1.044981 0.000000 0.940483
v -0.412635 1.042729 0.568823
v -0.018131 1.304134 0.342928
v -0.412635 1.042729 -0.568823
v -0.018131 1.304134 -0.342928
v -1.863790 0.000000 -1.129595
v 1.044981 0.000000 -0.940483
v -0.664792 1.235541 0.000000
v 1.710478 0.000000 0.000000
v -2.388942 0.000000 0.311191
v -2.340385 0.461200 0.000000
v -2.388942 0.000000 -0.311191
v -1.863790 0.000000 0.000000
v 0.170396 1.426710 -0.000000
v -1.801399 0.104029 0.000000
vt 0.375000 0.000000
vt 0.625000 0.000000
vt 0.375000 0.250000
vt 0.625000 0.250000
vt 0.375000 0.500000
vt 0.625000 0.500000
vt 0.375000 0.750000
vt 0.625000 0.750000
vt 0.375000 1.000000
vt 0.625000 1.000000
vt 0.875000 0.000000
vt 0.875000 0.250000
vt 0.125000 0.000000
vt 0.125000 0.250000
vt 0.375000 0.375000
vt 0.625000 0.875000
vt 0.750000 0.000000
vt 0.250000 0.250000
vt 0.375000 0.000000
vt 0.250000 0.250000
vt 0.125000 0.000000
vt 0.375000 0.875000
vt 0.250000 0.000000
vt 0.625000 0.375000
vt 0.750000 0.250000
vt 0.250000 0.083333
vn -0.766635 0.412642 -0.491933
vn -0.766635 0.412642 -0.491933
vn -0.766635 0.412642 -0.491933
vn -0.316459 0.846890 0.427353
vn -0.316459 0.846890 0.427353
vn -0.316459 0.846890 0.427353
vn -0.367942 0.796188 -0.480315
vn -0.367942 0.796188 -0.480315
vn -0.367942 0.796188 -0.480315
vn -0.400763 0.798918 -0.448463
vn -0.400763 0.798918 -0.448463
vn -0.400763 0.798918 -0.448463
vn -0.217646 0.950859 -0.220222
vn -0.217646 0.950859 -0.220222
vn -0.217646 0.950859 -0.220222
vn -0.316459 0.846891 -0.427353
vn -0.316459 0.846891 -0.427353
vn -0.316459 0.846891 -0.427352
vn 0.148076 0.509183 0.847824
vn 0.148076 0.509183 0.847824
vn 0.148076 0.509183 0.847824
vn 0.597723 0.681054 0.422956
vn 0.597723 0.681054 0.422956
vn 0.597723 0.681054 0.422956
vn 0.059243 0.407606 0.911234
vn 0.059243 0.407607 0.911234
vn 0.059243 0.407607 0.911234
vn -0.400763 0.798918 0.448463
vn -0.400763 0.798918 0.448463
vn -0.400763 0.798918 0.448463
vn -0.367942 0.796188 0.480315
vn -0.367942 0.796188 0.480315
vn -0.367942 0.796188 0.480315
vn 0.148076 0.509183 -0.847824
vn 0.148076 0.509183 -0.847824
vn 0.148076 0.509183 -0.847824
vn 0.573484 0.619055 -0.536551
vn 0.573484 0.619055 -0.536551
vn 0.573484 0.619055 -0.536551
vn 0.597723 0.681054 -0.422956
vn 0.597723 0.681054 -0.422956
vn 0.597723 0.681054 -0.422956
vn 0.000000 -1.000000 0.000000
vn 0.000000 -1.000000 0.000000
vn 0.000000 -1.000000 0.000000
vn 0.059243 0.407606 -0.911234
vn 0.059243 0.407606 -0.911234
vn 0.059243 0.407606 -0.911234
vn 0.000000 -1.000000 0.000000
vn 0.000000 -1.000000 0.000000
vn 0.000000 -1.000000 0.000000
vn -0.766634 0.412643 0.491933
vn -0.766634 0.412643 0.491933
vn -0.766634 0.412643 0.491933
vn 0.000000 -1.000000 0.000000
vn 0.000000 -1.000000 0.000000
vn 0.000000 -1.000000 0.000000
vn 0.000000 -1.000000 0.000000
vn 0.000000 -1.000000 0.000000
vn 0.000000 -1.000000 0.000000
vn 0.000000 -1.000000 0.000000
vn 0.000000 -1.000000 0.000000
vn 0.000000 -1.000000 0.000000
vn 0.000000 -1.000000 0.000000
vn 0.000000 -1.000000 0.000000
vn -0.217645 0.950859 0.220222
vn -0.217645 0.950859 0.220222
vn -0.217645 0.950859 0.220222
vn 0.573484 0.619055 0.536551
vn 0.573484 0.619055 0.536551
vn 0.573484 0.619055 0.536551
vn -0.333310 -0.502978 -0.797445
vn -0.333310 -0.502978 -0.797445
vn -0.333310 -0.502978 -0.797445
vn -0.333310 -0.502978 0.797445
vn -0.333310 -0.502978 0.797445
vn -0.333310 -0.502978 0.797445
vn -0.174345 0.984685 0.000000
vn -0.174345 0.984685 0.000000
vn -0.174345 0.984685 0.000000
s off
f 12/20/1 7/13/2 13/21/3
f 4/4/4 9/15/5 3/3/6
f 7/13/7 12/20/8 9/18/9
f 7/13/10 9/18/11 5/14/12
f 9/15/13 15/24/14 6/6/15
f 9/15/16 6/6/17 5/5/18
f 3/3/19 2/2/20 4/4/21
f 10/17/22 4/4/23 2/2/24
f 2/2/25 3/3/26 1/1/27
f 9/18/28 1/1/29 3/3/30
f 12/20/31 1/1/32 9/18/33
f 8/8/34 5/5/35 6/6/36
f 15/25/37 10/17/38 6/12/39
f 6/12/40 10/17/41 8/11/42
f 10/16/43 14/22/44 8/8/45
f 5/5/46 8/8/47 7/7/48
f 13/21/49 14/23/50 11/19/51
f 1/1/52 12/20/53 11/19/54
s 1
f 14/23/55 13/21/56 7/13/57
s 2
f 11/19/58 14/23/59 1/1/60
s 1
f 8/8/61 14/22/55 7/7/57
s 2
f 14/22/59 2/10/62 1/9/60
s off
f 14/22/63 10/16/64 2/10/65
f 15/24/66 9/15/67 4/4/68
f 10/17/69 15/25/70 4/4/71
f 11/19/72 12/20/73 16/26/74
f 12/20/75 13/21/76 16/26/77
f 13/21/78 11/19/79 16/26/80
