# This file uses centimeters as units for non-parametric coordinates.

v 0.000000 0.000000 22.155735
v 0.000000 0.000000 26.867176
v 0.566483 0.100800 22.136610
v 0.687592 0.100878 26.848038
v 1.641665 0.277758 22.062855
v 1.991006 0.277722 26.766396
v 3.603469 0.555522 21.771507
v 4.373590 0.555532 26.426855
v 5.739947 0.823851 21.240482
v 6.970759 0.823848 25.797340
v 8.045977 1.089925 20.402775
v 9.777734 1.089925 24.796030
v 10.450025 1.353169 19.194115
v 12.708314 1.353169 23.343796
v 12.874380 1.615087 17.556116
v 15.668776 1.615087 21.368359
v 15.217422 1.876626 15.442915
v 18.535965 1.876626 18.812271
v 17.358694 2.138881 12.828259
v 21.163353 2.138881 15.641583
v 19.160574 2.402908 9.713381
v 23.382854 2.402908 11.855533
v 20.474138 2.669773 6.134923
v 25.011810 2.669773 7.496368
v 21.147776 2.940540 2.172112
v 25.863312 2.940540 2.658353
v 21.039175 3.216273 -2.048072
v 25.760742 3.216273 -2.505581
v 20.030285 3.498037 -6.348835
v 24.556055 3.498037 -7.780890
v 18.044573 3.786895 -10.506348
v 22.151001 3.786895 -12.894330
v 15.065187 4.083915 -14.258298
v 18.519693 4.083915 -17.523922
v 11.152031 4.390143 -17.319561
v 13.730064 4.390143 -21.317707
v 6.455040 4.706716 -19.405119
v 7.960907 4.706716 -23.921539
v 1.220806 5.034428 -20.259569
v 1.510973 5.034428 -25.015238
v -4.210759 5.375346 -19.691517
v -5.204049 5.375346 -24.355148
v -9.422398 5.726792 -17.609383
v -11.670086 5.726792 -21.818893
v -13.949533 6.084751 -14.054046
v -17.310747 6.084751 -17.446795
v -17.324583 6.449955 -9.222528
v -21.541437 6.449955 -11.472741
v -19.132870 6.821868 -3.476372
v -23.838448 6.821868 -4.336555
v -19.074833 7.200289 2.670637
v -23.816790 7.200289 3.329048
v -17.026659 7.584933 8.589912
v -21.307060 7.584933 10.742873
v -13.088979 7.975532 13.600574
v -16.418566 7.975532 17.051428
v -7.612303 8.371815 17.054428
v -9.574368 8.371815 21.434189
v -1.188996 8.773517 18.433647
v -1.505048 8.773517 23.226294
v 5.394999 9.180362 17.448124
v 6.808006 9.180362 22.042677
v 11.250476 9.592082 14.114770
v 14.242987 9.592082 17.881510
v 15.509825 10.008412 8.799851
v 19.693323 10.008412 11.182789
v 17.471422 10.429076 2.208564
v 22.250626 10.429076 2.821319
v 16.740253 10.853807 -4.688509
v 21.386023 10.853807 -5.980331
v 13.335706 11.282338 -10.790215
v 17.093109 11.282338 -13.818264
v 7.738871 11.714393 -15.046660
v 9.956465 11.714393 -19.336643
v 0.856922 12.149706 -16.660133
v 1.115553 12.149706 -21.485964
v -6.103213 12.588009 -15.265503
v -7.888442 12.588009 -19.760113
v -11.841162 13.029028 -11.048029
v -15.371863 13.029028 -14.357846
v -15.218387 13.472495 -4.760888
v -19.836651 13.472495 -6.218165
v -15.511786 13.918143 2.378461
v -20.303532 13.918143 3.100561
v -12.607207 14.365698 8.908460
v -16.574711 14.365698 11.695988
v -7.076954 14.814891 13.426846
v -9.351233 14.814891 17.712526
v -0.104906 15.265456 14.914845
v -0.153275 15.265456 19.769102
v 6.743637 15.717119 13.005169
v 8.966319 15.717119 17.323877
v 11.871052 16.169611 8.117417
v 15.873716 16.169611 10.873191
v 14.039179 16.622665 1.407855
v 18.875187 16.622665 1.909033
v 12.705585 17.076008 -5.475970
v 17.179085 17.076008 -7.385681
v 8.205696 17.529373 -10.793547
v 11.164597 17.529373 -14.656640
v 1.712656 17.982485 -13.168260
v 2.358584 17.982485 -17.993097
v -5.038869 18.435081 -11.980896
v -6.909159 18.435081 -16.476925
v -10.208074 18.886890 -7.577786
v -14.107360 18.886890 -10.497012
v -12.367481 19.337635 -1.214991
v -17.214296 19.337635 -1.711860
v -10.934589 19.787056 5.270948
v -15.333722 19.787056 7.367699
v -6.375440 20.234880 9.986941
v -9.016911 20.234880 14.083214
v -0.097812 20.680830 11.555940
v -0.162324 20.680830 16.430223
v 5.957581 21.124649 9.557897
v 8.515791 21.124649 13.707861
v 9.915566 21.566059 4.686395
v 14.312487 21.566059 6.792387
v 10.571504 22.004787 -1.450125
v 15.404939 22.004787 -2.086656
v 7.798007 22.440575 -6.839492
v 11.480876 22.440575 -10.033321
v 2.602853 22.873144 -9.731099
v 3.889806 22.873144 -14.432379
v -3.201077 23.302223 -9.233788
v -4.769287 23.302223 -13.847974
v -7.617106 23.727552 -5.629680
v -11.516915 23.727552 -8.550405
v -9.165505 24.148853 -0.278935
v -14.033048 24.148853 -0.459317
v -7.412349 24.565855 4.866563
v -11.501040 24.565855 7.510761
v -3.122395 24.978296 7.974570
v -4.929593 24.978296 12.493876
v 2.032344 25.385902 8.006679
v 3.193707 25.385902 12.731002
v 6.109275 25.788399 5.097961
v 9.817948 25.788399 8.242605
v 7.637671 26.185524 0.486755
v 12.484660 26.185524 0.835810
v 6.175767 26.577007 -3.984286
v 10.279150 26.577007 -6.581655
v 2.459028 26.962570 -6.602962
v 4.193780 26.962570 -11.135137
v -1.924851 27.341953 -6.462296
v -3.264799 27.341953 -11.122477
v -5.200984 27.714884 -3.798217
v -9.084765 27.714884 -6.694493
v -6.136470 28.081085 0.148642
v -10.976306 28.081085 0.214890
v -4.525661 28.440300 3.686487
v -8.308385 28.440300 6.698523
v -1.227885 28.792250 5.399004
v -2.354267 28.792250 10.096033
v 2.250580 29.136663 4.729579
v 4.269326 29.136663 9.111540
v 4.437736 29.473278 2.170012
v 8.738272 29.473278 4.343721
v 4.530436 29.801823 -1.018029
v 9.240059 29.801823 -2.007033
v 2.700447 30.122019 -3.408378
v 5.740950 30.122019 -7.129881
v -0.054890 30.433609 -4.054938
v -0.042697 30.433609 -8.853493
v -2.427237 30.736317 -2.876802
v -5.453030 30.736317 -6.591532
v -3.419186 31.029869 -0.618583
v -8.109222 31.029869 -1.557981
v -2.773063 31.314005 1.571757
v -6.974341 31.314005 3.841174
v -1.014576 31.588449 2.719670
v -2.778701 31.588449 7.147498
v 0.886501 31.852930 2.466689
v 2.382249 31.852930 6.981286
v 2.027668 32.107185 1.163005
v 6.086090 32.107185 3.639650
v 2.038898 32.350937 -0.380982
v 6.695422 32.350937 -1.135114
v 1.160174 32.583920 -1.439091
v 4.125122 32.583920 -4.969355
v -0.053852 32.805862 -1.648785
v -0.120882 32.805862 -6.103702
v -1.000385 33.016499 -1.081061
v -3.846838 33.016499 -4.254037
v -1.305546 33.215553 -0.140058
v -5.318484 33.215553 -0.628888
v -0.951913 33.402760 0.670880
v -4.095239 33.402760 2.817857
v -0.235109 33.577854 0.994716
v -1.114622 33.577850 4.450119
v 0.420113 33.740532 0.773661
v 1.942432 33.740543 3.736244
v 0.692668 33.890644 0.242592
v 3.593982 33.890602 1.371185
v 0.529110 34.027496 -0.229680
v 3.271728 34.027649 -1.245970
v 0.155878 34.152386 -0.376632
v 1.457246 34.151817 -2.827501
v -0.102479 34.259205 -0.186733
v -0.723477 34.261337 -2.783792
v -0.036388 34.332710 -0.040233
v -1.714290 34.328117 -1.919447
v 0.013018 34.356445 0.009014
v -1.982390 34.356445 -1.372695
vt 0.000000 0.000000
vt 0.000000 1.000000
vt 0.333333 0.000000
vt 0.333333 1.000000
vt 1.000000 0.000000
vt 1.000000 1.000000
vt 2.000000 0.000000
vt 2.000000 1.000000
vt 3.000000 0.000000
vt 3.000000 1.000000
vt 4.000000 0.000000
vt 4.000000 1.000000
vt 5.000000 0.000000
vt 5.000000 1.000000
vt 6.000000 0.000000
vt 6.000000 1.000000
vt 7.000000 0.000000
vt 7.000000 1.000000
vt 8.000000 0.000000
vt 8.000000 1.000000
vt 9.000000 0.000000
vt 9.000000 1.000000
vt 10.000000 0.000000
vt 10.000000 1.000000
vt 11.000000 0.000000
vt 11.000000 1.000000
vt 12.000000 0.000000
vt 12.000000 1.000000
vt 13.000000 0.000000
vt 13.000000 1.000000
vt 14.000000 0.000000
vt 14.000000 1.000000
vt 15.000000 0.000000
vt 15.000000 1.000000
vt 16.000000 0.000000
vt 16.000000 1.000000
vt 17.000000 0.000000
vt 17.000000 1.000000
vt 18.000000 0.000000
vt 18.000000 1.000000
vt 19.000000 0.000000
vt 19.000000 1.000000
vt 20.000000 0.000000
vt 20.000000 1.000000
vt 21.000000 0.000000
vt 21.000000 1.000000
vt 22.000000 0.000000
vt 22.000000 1.000000
vt 23.000000 0.000000
vt 23.000000 1.000000
vt 24.000000 0.000000
vt 24.000000 1.000000
vt 25.000000 0.000000
vt 25.000000 1.000000
vt 26.000000 0.000000
vt 26.000000 1.000000
vt 27.000000 0.000000
vt 27.000000 1.000000
vt 28.000000 0.000000
vt 28.000000 1.000000
vt 29.000000 0.000000
vt 29.000000 1.000000
vt 30.000000 0.000000
vt 30.000000 1.000000
vt 31.000000 0.000000
vt 31.000000 1.000000
vt 32.000000 0.000000
vt 32.000000 1.000000
vt 33.000000 0.000000
vt 33.000000 1.000000
vt 34.000000 0.000000
vt 34.000000 1.000000
vt 35.000000 0.000000
vt 35.000000 1.000000
vt 36.000000 0.000000
vt 36.000000 1.000000
vt 37.000000 0.000000
vt 37.000000 1.000000
vt 38.000000 0.000000
vt 38.000000 1.000000
vt 39.000000 0.000000
vt 39.000000 1.000000
vt 40.000000 0.000000
vt 40.000000 1.000000
vt 41.000000 0.000000
vt 41.000000 1.000000
vt 42.000000 0.000000
vt 42.000000 1.000000
vt 43.000000 0.000000
vt 43.000000 1.000000
vt 44.000000 0.000000
vt 44.000000 1.000000
vt 45.000000 0.000000
vt 45.000000 1.000000
vt 46.000000 0.000000
vt 46.000000 1.000000
vt 47.000000 0.000000
vt 47.000000 1.000000
vt 48.000000 0.000000
vt 48.000000 1.000000
vt 49.000000 0.000000
vt 49.000000 1.000000
vt 50.000000 0.000000
vt 50.000000 1.000000
vt 51.000000 0.000000
vt 51.000000 1.000000
vt 52.000000 0.000000
vt 52.000000 1.000000
vt 53.000000 0.000000
vt 53.000000 1.000000
vt 54.000000 0.000000
vt 54.000000 1.000000
vt 55.000000 0.000000
vt 55.000000 1.000000
vt 56.000000 0.000000
vt 56.000000 1.000000
vt 57.000000 0.000000
vt 57.000000 1.000000
vt 58.000000 0.000000
vt 58.000000 1.000000
vt 59.000000 0.000000
vt 59.000000 1.000000
vt 60.000000 0.000000
vt 60.000000 1.000000
vt 61.000000 0.000000
vt 61.000000 1.000000
vt 62.000000 0.000000
vt 62.000000 1.000000
vt 63.000000 0.000000
vt 63.000000 1.000000
vt 64.000000 0.000000
vt 64.000000 1.000000
vt 65.000000 0.000000
vt 65.000000 1.000000
vt 66.000000 0.000000
vt 66.000000 1.000000
vt 67.000000 0.000000
vt 67.000000 1.000000
vt 68.000000 0.000000
vt 68.000000 1.000000
vt 69.000000 0.000000
vt 69.000000 1.000000
vt 70.000000 0.000000
vt 70.000000 1.000000
vt 71.000000 0.000000
vt 71.000000 1.000000
vt 72.000000 0.000000
vt 72.000000 1.000000
vt 73.000000 0.000000
vt 73.000000 1.000000
vt 74.000000 0.000000
vt 74.000000 1.000000
vt 75.000000 0.000000
vt 75.000000 1.000000
vt 76.000000 0.000000
vt 76.000000 1.000000
vt 77.000000 0.000000
vt 77.000000 1.000000
vt 78.000000 0.000000
vt 78.000000 1.000000
vt 79.000000 0.000000
vt 79.000000 1.000000
vt 80.000000 0.000000
vt 80.000000 1.000000
vt 81.000000 0.000000
vt 81.000000 1.000000
vt 82.000000 0.000000
vt 82.000000 1.000000
vt 83.000000 0.000000
vt 83.000000 1.000000
vt 84.000000 0.000000
vt 84.000000 1.000000
vt 85.000000 0.000000
vt 85.000000 1.000000
vt 86.000000 0.000000
vt 86.000000 1.000000
vt 87.000000 0.000000
vt 87.000000 1.000000
vt 88.000000 0.000000
vt 88.000000 1.000000
vt 89.000000 0.000000
vt 89.000000 1.000000
vt 90.000000 0.000000
vt 90.000000 1.000000
vt 91.000000 0.000000
vt 91.000000 1.000000
vt 92.000000 0.000000
vt 92.000000 1.000000
vt 93.000000 0.000000
vt 93.000000 1.000000
vt 94.000000 0.000000
vt 94.000000 1.000000
vt 95.000000 0.000000
vt 95.000000 1.000000
vt 96.000000 0.000000
vt 96.000000 1.000000
vt 97.000000 0.000000
vt 97.000000 1.000000
vt 98.000000 0.000000
vt 98.000000 1.000000
vt 98.666664 0.000000
vt 98.666664 1.000000
vt 99.000000 0.000000
vt 99.000000 1.000000
vn -0.158718 0.987322 0.002032
vn -0.158718 0.987322 0.002032
vn -0.150889 0.988536 0.005467
vn -0.150735 0.988559 0.005535
vn -0.132635 0.991090 0.012178
vn -0.132245 0.991141 0.012313
vn -0.115546 0.993116 0.019223
vn -0.115227 0.993150 0.019373
vn -0.099516 0.994668 0.027074
vn -0.099249 0.994691 0.027211
vn -0.085965 0.995717 0.034036
vn -0.085732 0.995733 0.034156
vn -0.073726 0.996465 0.040272
vn -0.073513 0.996477 0.040380
vn -0.062284 0.997007 0.045803
vn -0.062081 0.997015 0.045897
vn -0.051182 0.997408 0.050570
vn -0.050982 0.997414 0.050650
vn -0.040134 0.997709 0.054462
vn -0.039934 0.997714 0.054524
vn -0.028954 0.997936 0.057312
vn -0.028750 0.997940 0.057353
vn -0.017559 0.998109 0.058909
vn -0.017352 0.998112 0.058926
vn -0.005973 0.998239 0.059015
vn -0.005762 0.998241 0.059003
vn 0.005675 0.998336 0.057379
vn 0.005886 0.998338 0.057332
vn 0.017135 0.998407 0.053760
vn 0.017340 0.998408 0.053676
vn 0.028036 0.998455 0.047967
vn 0.028227 0.998456 0.047842
vn 0.037887 0.998486 0.039893
vn 0.038054 0.998486 0.039724
vn 0.046098 0.998499 0.029566
vn 0.046230 0.998499 0.029357
vn 0.051985 0.998500 0.017190
vn 0.052068 0.998500 0.016945
vn 0.054941 0.998484 0.003200
vn 0.054967 0.998484 0.002930
vn 0.054077 0.998469 -0.011637
vn 0.054019 0.998469 -0.011915
vn 0.048592 0.998480 -0.026020
vn 0.048445 0.998480 -0.026275
vn 0.038839 0.998501 -0.038572
vn 0.038621 0.998501 -0.038784
vn 0.025585 0.998517 -0.048060
vn 0.025305 0.998517 -0.048203
vn 0.009697 0.998532 -0.053294
vn 0.009377 0.998532 -0.053347
vn -0.007450 0.998545 -0.053406
vn -0.007781 0.998545 -0.053355
vn -0.024152 0.998557 -0.047964
vn -0.024459 0.998557 -0.047805
vn -0.038514 0.998568 -0.037140
vn -0.038759 0.998568 -0.036881
vn -0.048671 0.998577 -0.021799
vn -0.048818 0.998577 -0.021462
vn -0.053060 0.998585 -0.003505
vn -0.053082 0.998585 -0.003127
vn -0.050704 0.998592 0.015576
vn -0.050586 0.998592 0.015949
vn -0.041458 0.998598 0.032902
vn -0.041206 0.998598 0.033216
vn -0.026181 0.998604 0.045887
vn -0.025820 0.998604 0.046091
vn -0.006757 0.998608 0.052317
vn -0.006333 0.998608 0.052370
vn 0.014058 0.998611 0.050780
vn 0.014482 0.998611 0.050660
vn 0.032977 0.998613 0.041034
vn 0.033330 0.998613 0.040749
vn 0.046699 0.998615 0.024234
vn 0.046913 0.998615 0.023818
vn 0.052516 0.998616 0.002910
vn 0.052542 0.998616 0.002429
vn 0.048921 0.998616 -0.019316
vn 0.048738 0.998616 -0.019777
vn 0.036069 0.998615 -0.038300
vn 0.035696 0.998615 -0.038650
vn 0.015967 0.998614 -0.050158
vn 0.015464 0.998614 -0.050318
vn -0.007706 0.998611 -0.052114
vn -0.008242 0.998611 -0.052034
vn -0.030187 0.998609 -0.043242
vn -0.030645 0.998608 -0.042922
vn -0.046563 0.998605 -0.024906
vn -0.046835 0.998605 -0.024397
vn -0.052884 0.998600 -0.000714
vn -0.052892 0.998600 -0.000121
vn -0.047204 0.998595 0.024067
vn -0.046925 0.998595 0.024612
vn -0.030287 0.998590 0.043608
vn -0.029769 0.998589 0.043968
vn -0.005717 0.998583 0.052909
vn -0.005070 0.998583 0.052979
vn 0.020718 0.998576 0.049166
vn 0.021337 0.998576 0.048906
vn 0.042313 0.998568 0.032743
vn 0.042737 0.998568 0.032196
vn 0.053153 0.998559 0.007400
vn 0.053251 0.998559 0.006693
vn 0.049826 0.998550 -0.020402
vn 0.049547 0.998549 -0.021085
vn 0.032636 0.998539 -0.043061
vn 0.032029 0.998539 -0.043521
vn 0.005866 0.998528 -0.053916
vn 0.005085 0.998528 -0.054002
vn -0.023106 0.998516 -0.049306
vn -0.023841 0.998516 -0.048962
vn -0.045750 0.998504 -0.029950
vn -0.046210 0.998503 -0.029249
vn -0.054915 0.998490 -0.001124
vn -0.054934 0.998490 -0.000257
vn -0.047196 0.998476 0.028601
vn -0.046732 0.998476 0.029368
vn -0.024355 0.998461 0.049825
vn -0.023522 0.998461 0.050233
vn 0.006817 0.998445 0.055330
vn 0.007770 0.998444 0.055213
vn 0.036351 0.998428 0.042666
vn 0.037108 0.998427 0.042021
vn 0.054231 0.998410 0.015381
vn 0.054513 0.998410 0.014390
vn 0.053860 0.998391 -0.017733
vn 0.053527 0.998390 -0.018746
vn 0.034656 0.998371 -0.045323
vn 0.033777 0.998370 -0.045995
vn 0.002725 0.998350 -0.057357
vn 0.001578 0.998349 -0.057411
vn -0.030861 0.998328 -0.048877
vn -0.031869 0.998327 -0.048241
vn -0.053796 0.998305 -0.022223
vn -0.054268 0.998304 -0.021078
vn -0.057090 0.998280 0.013320
vn -0.056797 0.998279 0.014575
vn -0.038748 0.998255 0.044571
vn -0.037735 0.998254 0.045451
vn -0.005038 0.998227 0.059301
vn -0.003645 0.998227 0.059418
vn 0.031402 0.998199 0.051113
vn 0.032643 0.998198 0.050349
vn 0.056178 0.998169 0.022406
vn 0.056740 0.998168 0.020993
vn 0.058860 0.998138 -0.016002
vn 0.058441 0.998137 -0.017534
vn 0.037527 0.998105 -0.048763
vn 0.036208 0.998104 -0.049774
vn 0.000129 0.998071 -0.062088
vn -0.001611 0.998069 -0.062088
vn -0.038226 0.998035 -0.049658
vn -0.039669 0.998033 -0.048542
vn -0.061264 0.997997 -0.015804
vn -0.061737 0.997995 -0.013947
vn -0.058500 0.997957 0.025698
vn -0.057683 0.997955 0.027542
vn -0.030181 0.997915 0.057057
vn -0.028298 0.997913 0.058044
vn 0.012168 0.997871 0.064080
vn 0.014373 0.997869 0.063652
vn 0.050205 0.997824 0.042733
vn 0.051739 0.997822 0.040915
vn 0.066644 0.997776 0.001570
vn 0.066691 0.997773 -0.000955
vn 0.053198 0.997724 -0.041425
vn 0.051534 0.997722 -0.043537
vn 0.014925 0.997671 -0.066564
vn 0.012117 0.997668 -0.067176
vn -0.031353 0.997614 -0.061511
vn -0.034092 0.997611 -0.060091
vn -0.064267 0.997554 -0.027496
vn -0.065551 0.997550 -0.024433
vn -0.067746 0.997491 0.020528
vn -0.066667 0.997487 0.023988
vn -0.039055 0.997425 0.060151
vn -0.035740 0.997420 0.062258
vn 0.009107 0.997355 0.072116
vn 0.013154 0.997350 0.071548
vn 0.054347 0.997281 0.049770
vn 0.057118 0.997278 0.046630
vn 0.074707 0.997202 0.002588
vn 0.074758 0.997200 -0.001758
vn 0.059229 0.997119 -0.047393
vn 0.056291 0.997118 -0.050867
vn 0.014081 0.997030 -0.075714
vn 0.009308 0.997030 -0.076447
vn -0.039595 0.996936 -0.067462
vn -0.044004 0.996937 -0.064659
vn -0.075383 0.996835 -0.025228
vn -0.077002 0.996837 -0.019671
vn -0.074555 0.996728 0.031234
vn -0.071745 0.996728 0.037219
vn -0.035944 0.996613 0.073962
vn -0.028733 0.996612 0.077059
vn 0.022676 0.996484 0.080658
vn 0.031969 0.996470 0.077629
vn 0.071206 0.996384 0.046352
vn 0.077271 0.996391 0.035128
vn 0.091560 0.995780 -0.006300
vn 0.093203 0.995414 -0.021554
vn 0.086343 0.994799 -0.054037
vn 0.068691 0.995752 -0.061320
vn 0.057330 0.996172 -0.065990
vn 0.057330 0.996172 -0.065990
s 1
f 1/1/1 2/2/2 4/4/3 3/3/4
f 3/3/4 4/4/3 6/6/5 5/5/6
f 5/5/6 6/6/5 8/8/7 7/7/8
f 7/7/8 8/8/7 10/10/9 9/9/10
f 9/9/10 10/10/9 12/12/11 11/11/12
f 11/11/12 12/12/11 14/14/13 13/13/14
f 13/13/14 14/14/13 16/16/15 15/15/16
f 15/15/16 16/16/15 18/18/17 17/17/18
f 17/17/18 18/18/17 20/20/19 19/19/20
f 19/19/20 20/20/19 22/22/21 21/21/22
f 21/21/22 22/22/21 24/24/23 23/23/24
f 23/23/24 24/24/23 26/26/25 25/25/26
f 25/25/26 26/26/25 28/28/27 27/27/28
f 27/27/28 28/28/27 30/30/29 29/29/30
f 29/29/30 30/30/29 32/32/31 31/31/32
f 31/31/32 32/32/31 34/34/33 33/33/34
f 33/33/34 34/34/33 36/36/35 35/35/36
f 35/35/36 36/36/35 38/38/37 37/37/38
f 37/37/38 38/38/37 40/40/39 39/39/40
f 39/39/40 40/40/39 42/42/41 41/41/42
f 41/41/42 42/42/41 44/44/43 43/43/44
f 43/43/44 44/44/43 46/46/45 45/45/46
f 45/45/46 46/46/45 48/48/47 47/47/48
f 47/47/48 48/48/47 50/50/49 49/49/50
f 49/49/50 50/50/49 52/52/51 51/51/52
f 51/51/52 52/52/51 54/54/53 53/53/54
f 53/53/54 54/54/53 56/56/55 55/55/56
f 55/55/56 56/56/55 58/58/57 57/57/58
f 57/57/58 58/58/57 60/60/59 59/59/60
f 59/59/60 60/60/59 62/62/61 61/61/62
f 61/61/62 62/62/61 64/64/63 63/63/64
f 63/63/64 64/64/63 66/66/65 65/65/66
f 65/65/66 66/66/65 68/68/67 67/67/68
f 67/67/68 68/68/67 70/70/69 69/69/70
f 69/69/70 70/70/69 72/72/71 71/71/72
f 71/71/72 72/72/71 74/74/73 73/73/74
f 73/73/74 74/74/73 76/76/75 75/75/76
f 75/75/76 76/76/75 78/78/77 77/77/78
f 77/77/78 78/78/77 80/80/79 79/79/80
f 79/79/80 80/80/79 82/82/81 81/81/82
f 81/81/82 82/82/81 84/84/83 83/83/84
f 83/83/84 84/84/83 86/86/85 85/85/86
f 85/85/86 86/86/85 88/88/87 87/87/88
f 87/87/88 88/88/87 90/90/89 89/89/90
f 89/89/90 90/90/89 92/92/91 91/91/92
f 91/91/92 92/92/91 94/94/93 93/93/94
f 93/93/94 94/94/93 96/96/95 95/95/96
f 95/95/96 96/96/95 98/98/97 97/97/98
f 97/97/98 98/98/97 100/100/99 99/99/100
f 99/99/100 100/100/99 102/102/101 101/101/102
f 101/101/102 102/102/101 104/104/103 103/103/104
f 103/103/104 104/104/103 106/106/105 105/105/106
f 105/105/106 106/106/105 108/108/107 107/107/108
f 107/107/108 108/108/107 110/110/109 109/109/110
f 109/109/110 110/110/109 112/112/111 111/111/112
f 111/111/112 112/112/111 114/114/113 113/113/114
f 113/113/114 114/114/113 116/116/115 115/115/116
f 115/115/116 116/116/115 118/118/117 117/117/118
f 117/117/118 118/118/117 120/120/119 119/119/120
f 119/119/120 120/120/119 122/122/121 121/121/122
f 121/121/122 122/122/121 124/124/123 123/123/124
f 123/123/124 124/124/123 126/126/125 125/125/126
f 125/125/126 126/126/125 128/128/127 127/127/128
f 127/127/128 128/128/127 130/130/129 129/129/130
f 129/129/130 130/130/129 132/132/131 131/131/132
f 131/131/132 132/132/131 134/134/133 133/133/134
f 133/133/134 134/134/133 136/136/135 135/135/136
f 135/135/136 136/136/135 138/138/137 137/137/138
f 137/137/138 138/138/137 140/140/139 139/139/140
f 139/139/140 140/140/139 142/142/141 141/141/142
f 141/141/142 142/142/141 144/144/143 143/143/144
f 143/143/144 144/144/143 146/146/145 145/145/146
f 145/145/146 146/146/145 148/148/147 147/147/148
f 147/147/148 148/148/147 150/150/149 149/149/150
f 149/149/150 150/150/149 152/152/151 151/151/152
f 151/151/152 152/152/151 154/154/153 153/153/154
f 153/153/154 154/154/153 156/156/155 155/155/156
f 155/155/156 156/156/155 158/158/157 157/157/158
f 157/157/158 158/158/157 160/160/159 159/159/160
f 159/159/160 160/160/159 162/162/161 161/161/162
f 161/161/162 162/162/161 164/164/163 163/163/164
f 163/163/164 164/164/163 166/166/165 165/165/166
f 165/165/166 166/166/165 168/168/167 167/167/168
f 167/167/168 168/168/167 170/170/169 169/169/170
f 169/169/170 170/170/169 172/172/171 171/171/172
f 171/171/172 172/172/171 174/174/173 173/173/174
f 173/173/174 174/174/173 176/176/175 175/175/176
f 175/175/176 176/176/175 178/178/177 177/177/178
f 177/177/178 178/178/177 180/180/179 179/179/180
f 179/179/180 180/180/179 182/182/181 181/181/182
f 181/181/182 182/182/181 184/184/183 183/183/184
f 183/183/184 184/184/183 186/186/185 185/185/186
f 185/185/186 186/186/185 188/188/187 187/187/188
f 187/187/188 188/188/187 190/190/189 189/189/190
f 189/189/190 190/190/189 192/192/191 191/191/192
f 191/191/192 192/192/191 194/194/193 193/193/194
f 193/193/194 194/194/193 196/196/195 195/195/196
f 195/195/196 196/196/195 198/198/197 197/197/198
f 197/197/198 198/198/197 200/200/199 199/199/200
f 199/199/200 200/200/199 202/202/201 201/201/202
f 201/201/202 202/202/201 204/204/203 203/203/204
